<?xml version="1.0" encoding="utf-8"?>
<!-- Generator: Adobe Illustrator 25.1.0, SVG Export Plug-In . SVG Version: 6.00 Build 0)  -->
<svg version="1.1" id="varebil" xmlns="http://www.w3.org/2000/svg" xmlns:xlink="http://www.w3.org/1999/xlink" x="0px" y="0px"
	 viewBox="0 0 2710.5 1103.6" enable-background="new 0 0 2710.5 1103.6" xml:space="preserve">
<g id="speedLine">
	<g>
		<path fill="#427F01" d="M1453.1,20.4c0-11.3,9.1-20.4,20.4-20.4l865.4,0c11.3,0,20.4,9.1,20.4,20.4s-9.1,20.4-20.4,20.4h-865.4
			C1462.2,40.8,1453.1,31.7,1453.1,20.4z"/>
	</g>
	<g>
		<path fill="#427F01" d="M2230.8,236.9c0-11.3,9.1-20.4,20.4-20.4h227.8c11.3,0,20.4,9.1,20.4,20.4s-9.1,20.4-20.4,20.4h-227.8
			C2240,257.3,2230.8,248.2,2230.8,236.9z"/>
	</g>
	<g>
		<path fill="#427F01" d="M2247.2,398.1c0-11.3,9.1-20.4,20.4-20.4h97.6c11.3,0,20.4,9.1,20.4,20.4s-9.1,20.4-20.4,20.4h-97.6
			C2256.3,418.5,2247.2,409.4,2247.2,398.1z"/>
	</g>
	<g>
		<path fill="#427F01" d="M2247.2,759c0-11.3,9.1-20.4,20.4-20.4H2524c11.3,0,20.4,9.1,20.4,20.4c0,11.3-9.1,20.4-20.4,20.4h-256.4
			C2256.3,779.5,2247.2,770.3,2247.2,759z"/>
	</g>
	<g>
		<path fill="#427F01" d="M2277.6,588c0-11.3,9.1-20.4,20.4-20.4h392.1c11.3,0,20.4,9.1,20.4,20.4s-9.1,20.4-20.4,20.4H2298
			C2286.8,608.5,2277.6,599.3,2277.6,588z"/>
	</g>
</g>
<g id="theCar">
	<path fill="#4EA004" d="M22.1,812.5c0,0-13.1-34.1,8.2-98c32.7-98,285.9-163.4,285.9-163.4l253.2-261.4
		c22.6-45.2,60.8-80.6,101.1-107.6c71.7-48,156.7-72.1,243-72.1h1133.2c35.3,0,67.6,20.9,81.1,53.6
		c44.7,107.9,67.8,321.9,67.8,356.9c0,42.9,17.7,58.2,17.7,58.2v219.8h-15.3v10h15.3v138.9l-218.1,58.4c2.2-12,3.4-24.5,3.4-37.1
		c0-113.5-92.3-205.8-205.8-205.8c-113.5,0-205.8,92.3-205.8,205.8c0,15.6,1.8,30.8,5.1,45.4H517.7c3.3-14.6,5.1-29.8,5.1-45.4
		c0-113.5-92.3-205.8-205.8-205.8c-113.5,0-205.8,92.3-205.8,205.8c0,6,0.3,11.9,0.8,17.8c-36.3-4.3-69.1-21.4-85.2-33
		c-21.8-15.7-24.7-74-26.7-104C-1.9,819.5,22.1,812.5,22.1,812.5z"/>
	<path fill="#427F01" d="M399.9,563.5c-0.3,0-1.1,0-1.7-1.4c-0.5-1.2-0.1-1.7,0.4-2.2l222.4-229.2c13.7-14.2,32.1-22.5,51.8-23.4
		l152.9-7.4c0.2,0,0.6,0,1.1,0.5c0.5,0.5,0.4,1,0.4,1.1l-8.7,208.8c0,1-0.8,1.9-1.8,2l-416.3,51.2L399.9,563.5z"/>
	<g>
		<g>
			<path fill="#427F01" d="M1052.6,110.1h520.8v904h-520.8V110.1z M1541.9,141.6h-457.8v840.9h457.8V141.6z"/>
		</g>
		<rect x="1557.6" y="526.6" fill="#427F01" width="384.7" height="94.6"/>
		<rect x="1106.7" y="556.1" fill="#427F01" width="138" height="31"/>
	</g>
	<path fill="#427F01" d="M22.1,812.5h219.2c-57.8,28.1-97.7,87.4-97.7,156c0,6,0.3,12,0.9,17.8c-48.2,6.1-96.9-18.1-117.6-33
		c-21.8-15.7-24.7-74-26.7-104C-1.9,819.5,22.1,812.5,22.1,812.5z"/>
	<path fill="#427F01" d="M392.7,812.5H1717c-57.8,28.1-97.7,87.4-97.7,156c0,15.7,2.3,30.9,6.2,45.4H497.2l-8.2-24.5
		c0.8-6.9,1.4-13.8,1.4-20.9C490.4,900,450.5,840.7,392.7,812.5z"/>
	<path fill="#427F01" d="M1868.4,812.5h344.8v134.8l-249.1,66.7h-4.2c3.9-14.5,6.2-29.7,6.2-45.4
		C1966.1,900,1926.3,840.7,1868.4,812.5z"/>
	<path fill="#427F01" d="M1792.7,762.8c113.4,0,205.8,92.3,205.8,205.8c0,12.7-1.2,25.1-3.4,37.1l-31,8.3h-4.2
		c3.9-14.5,6.2-29.7,6.2-45.4c0-95.8-77.6-173.4-173.4-173.4s-173.4,77.6-173.4,173.4c0,15.7,2.3,30.9,6.2,45.4H1592
		c-3.3-14.6-5.1-29.8-5.1-45.4C1587,855.1,1679.3,762.8,1792.7,762.8z"/>
	<path fill="#427F01" d="M317,762.8c113.4,0,205.8,92.3,205.8,205.8c0,15.6-1.8,30.8-5.1,45.4h-20.5l-8.2-24.5
		c0.8-6.9,1.4-13.8,1.4-20.9c0-96.8-79.3-175-176.4-173.4c-86.6,1.5-160.2,68.9-169.4,155.1c-1.3,12.3-1.3,24.4-0.1,36.2
		c-10.9,1.4-21.9,1.2-32.5,0c-0.5-5.9-0.8-11.8-0.8-17.8C111.2,855.1,203.5,762.8,317,762.8z"/>
	<g id="wheel1">
		<path fill="#427F01" d="M182,968.6c0-74.4,60.6-135,135-135s135,60.6,135,135s-60.6,135-135,135S182,1043,182,968.6z"/>
		<path fill="#4EA004" d="M248.6,968.6c0-37.7,30.7-68.3,68.4-68.3c37.7,0,68.4,30.7,68.4,68.3s-30.7,68.3-68.4,68.3
			S248.6,1006.3,248.6,968.6z"/>
		<rect x="303.4" y="861.7" fill="#427F01" width="27.2" height="213.9"/>
		<rect x="210.1" y="955" fill="#427F01" width="213.9" height="27.2"/>
	</g>
	<g id="wheel2">
		<path fill="#427F01" d="M1657.7,968.6c0,74.4,60.6,135,135,135c74.4,0,135-60.6,135-135s-60.6-135-135-135
			C1718.3,833.6,1657.7,894.1,1657.7,968.6z M1725.7,982.2c-0.9-4.4-1.4-8.9-1.4-13.6c0-4.7,0.5-9.2,1.4-13.6
			c5.4-26.8,26.6-48,53.4-53.4c4.4-0.9,8.9-1.4,13.6-1.4s9.2,0.5,13.6,1.4c26.8,5.4,48,26.6,53.4,53.4c0.9,4.4,1.4,9,1.4,13.6
			c0,4.7-0.5,9.2-1.4,13.6c-5.4,26.8-26.6,48-53.4,53.4c-4.4,0.9-8.9,1.4-13.6,1.4c-4.6,0-9.2-0.5-13.6-1.4
			C1752.3,1030.2,1731.2,1009,1725.7,982.2z"/>
		<path fill="#4EA004" d="M1725.7,982.2h53.4v53.4C1752.3,1030.2,1731.2,1009,1725.7,982.2L1725.7,982.2z"/>
		<path fill="#4EA004" d="M1806.3,982.2h53.4c-5.4,26.8-26.6,48-53.4,53.4V982.2L1806.3,982.2z"/>
		<path fill="#4EA004" d="M1859.7,955h-53.4v-53.4C1833.1,907,1854.3,928.2,1859.7,955z"/>
		<path fill="#4EA004" d="M1779.1,901.6V955h-53.4C1731.2,928.2,1752.3,907,1779.1,901.6z"/>
		<rect x="1779.1" y="861.7" fill="#427F01" width="27.2" height="213.9"/>
		<rect x="1685.8" y="955" fill="#427F01" width="213.9" height="27.2"/>
	</g>
</g>
</svg>
